<svg xmlns="http://www.w3.org/2000/svg" version="1.1" xmlns:xlink="http://www.w3.org/1999/xlink" xmlns:svgjs="http://svgjs.dev/svgjs" width="1000" height="290" viewBox="0 0 1000 290"><g transform="matrix(1,0,0,1,-0.606048840415724,-0.3817918505426121)"><svg viewBox="0 0 396 115" data-background-color="#ffffff" preserveAspectRatio="xMidYMid meet" height="290" width="1000" xmlns="http://www.w3.org/2000/svg" xmlns:xlink="http://www.w3.org/1999/xlink"><g id="tight-bounds" transform="matrix(1,0,0,1,0.23999572867342067,0.15140021659448166)"><svg viewBox="0 0 395.52 114.69719956681104" height="114.69719956681104" width="395.52"><g><svg viewBox="0 0 395.52 114.69719956681104" height="114.69719956681104" width="395.52"><g><svg viewBox="0 0 658.5683913688714 190.97883852454783" height="114.69719956681104" width="395.52"><g transform="matrix(1,0,0,1,263.0483913688714,56.059254042447535)"><svg viewBox="0 0 395.52 78.86033043965276" height="78.86033043965276" width="395.52"><g id="textblocktransform"><svg viewBox="0 0 395.52 78.86033043965276" height="78.86033043965276" width="395.52" id="textblock"><g><svg viewBox="0 0 395.52 78.86033043965276" height="78.86033043965276" width="395.52"><g transform="matrix(1,0,0,1,0,0)"><svg width="395.52" viewBox="0.10000000149011612 -35.29999923706055 178.5399932861328 35.599998474121094" height="78.86033043965276" data-palette-color="#8dbdff"><path d="M31.85 0L27.65-9.35 8.15-9.35 3.95 0 0.1 0 16.1-35 19.75-35 35.75 0 31.85 0ZM9.5-12.35L26.3-12.35 17.9-31.15 9.5-12.35ZM69.5 0L65.45 0 57.45-11.25Q56.1-11.1 54.65-11.1L54.65-11.1 45.25-11.1 45.25 0 41.55 0 41.55-35 54.65-35Q61.35-35 65.15-31.8 68.95-28.6 68.95-23L68.95-23Q68.95-18.9 66.87-16.07 64.8-13.25 60.95-12L60.95-12 69.5 0ZM54.55-14.25Q59.75-14.25 62.5-16.55 65.25-18.85 65.25-23L65.25-23Q65.25-27.25 62.5-29.53 59.75-31.8 54.55-31.8L54.55-31.8 45.25-31.8 45.25-14.25 54.55-14.25ZM102.34-5.7L102.34-17.5 105.9-17.5 105.9-4.15Q103.45-2 100.09-0.85 96.75 0.3 93.05 0.3L93.05 0.3Q87.8 0.3 83.59-2 79.4-4.3 77-8.38 74.59-12.45 74.59-17.5L74.59-17.5Q74.59-22.55 77-26.63 79.4-30.7 83.59-33 87.8-35.3 93.09-35.3L93.09-35.3Q97.09-35.3 100.45-34.02 103.8-32.75 106.09-30.25L106.09-30.25 103.8-27.9Q99.65-32 93.25-32L93.25-32Q89-32 85.57-30.13 82.15-28.25 80.2-24.93 78.25-21.6 78.25-17.5L78.25-17.5Q78.25-13.4 80.2-10.1 82.15-6.8 85.55-4.9 88.95-3 93.2-3L93.2-3Q98.59-3 102.34-5.7L102.34-5.7ZM130.44 0.3Q123.64 0.3 119.84-3.6 116.04-7.5 116.04-14.95L116.04-14.95 116.04-35 119.74-35 119.74-15.1Q119.74-9 122.49-6 125.24-3 130.44-3L130.44-3Q135.69-3 138.44-6 141.19-9 141.19-15.1L141.19-15.1 141.19-35 144.79-35 144.79-14.95Q144.79-7.5 141.02-3.6 137.24 0.3 130.44 0.3L130.44 0.3ZM165.59 0.3Q161.69 0.3 158.12-0.95 154.54-2.2 152.59-4.25L152.59-4.25 154.04-7.1Q155.94-5.2 159.09-4.03 162.24-2.85 165.59-2.85L165.59-2.85Q170.29-2.85 172.64-4.58 174.99-6.3 174.99-9.05L174.99-9.05Q174.99-11.15 173.72-12.4 172.44-13.65 170.59-14.33 168.74-15 165.44-15.8L165.44-15.8Q161.49-16.8 159.14-17.73 156.79-18.65 155.12-20.55 153.44-22.45 153.44-25.7L153.44-25.7Q153.44-28.35 154.84-30.53 156.24-32.7 159.14-34 162.04-35.3 166.34-35.3L166.34-35.3Q169.34-35.3 172.22-34.48 175.09-33.65 177.19-32.2L177.19-32.2 175.94-29.25Q173.74-30.7 171.24-31.43 168.74-32.15 166.34-32.15L166.34-32.15Q161.74-32.15 159.42-30.38 157.09-28.6 157.09-25.8L157.09-25.8Q157.09-23.7 158.37-22.43 159.64-21.15 161.56-20.48 163.49-19.8 166.74-19L166.74-19Q170.59-18.05 172.97-17.13 175.34-16.2 176.99-14.33 178.64-12.45 178.64-9.25L178.64-9.25Q178.64-6.6 177.22-4.42 175.79-2.25 172.84-0.98 169.89 0.3 165.59 0.3L165.59 0.3Z" opacity="1" transform="matrix(1,0,0,1,0,0)" fill="#8dbdff" class="undefined-text-0" data-fill-palette-color="primary" id="text-0"></path></svg></g></svg></g></svg></g></svg></g><g><svg viewBox="0 0 244.43135999999996 190.97883852454783" height="190.97883852454783" width="244.43135999999996"><g><svg xmlns="http://www.w3.org/2000/svg" xmlns:xlink="http://www.w3.org/1999/xlink" version="1.1" x="0" y="0" viewBox="5.931000232696533 15.18899917602539 88.07032012939453 68.81100463867188" enable-background="new 0 0 100 100" xml:space="preserve" height="190.97883852454783" width="244.43135999999996" class="icon-icon-0" data-fill-palette-color="accent" id="icon-0"><path d="M84.155 32.551c-0.192-0.025-0.386 0-0.574 0.061-0.081-2.213-0.492-4.327-1.178-6.271-1.798-5.099-5.469-9.019-9.974-10.507-1.279-0.416-2.62-0.645-4.013-0.645-6.281 0-11.679 4.606-13.984 11.152-0.686 1.944-1.097 4.062-1.183 6.276-0.188-0.065-0.386-0.091-0.579-0.065-1.199 0.163-1.914 2.158-1.6 4.454 0.315 2.295 1.543 4.022 2.743 3.859 0.234-0.035 0.447-0.137 0.64-0.294 2.32 6.514 7.704 11.1 13.963 11.1 1.393 0 2.733-0.228 4.013-0.65 4.484-1.478 8.145-5.377 9.948-10.444 0.193 0.157 0.406 0.253 0.635 0.289 1.198 0.163 2.427-1.563 2.743-3.859C86.07 34.709 85.354 32.714 84.155 32.551zM72.43 48.004c-1.26 0.538-2.61 0.833-4.013 0.833-6.808 0-12.348-6.911-12.348-15.407 0-1.472 0.171-2.899 0.481-4.251 1.107-1.436 2.655-2.396 4.369-2.837 1.39-0.355 2.889-0.366 4.341 0 1.828 0.461 3.59 1.523 4.977 3.245 0.706 0.868 1.447 1.6 2.193 2.199 3.535 2.854 7.243 2.96 8.292 2.93C80.311 40.895 76.965 46.049 72.43 48.004z" fill="#8dbdff" data-fill-palette-color="accent"></path><g fill="#8dbdff" data-fill-palette-color="accent"><g fill="#8dbdff" data-fill-palette-color="accent"><path d="M94 71.19c0-3.666 0.111-7.296-1.704-10.182C88.974 55.728 84.263 52 77.568 52h-0.452c-1.138 0-2.325 1.504-3.625 1.93 0 0-0.442 2.01-1.062 4.683-0.183 0.781-0.375 1.673-0.578 2.557-1.209 5.204-2.712 11.719-3.16 13.653 0-1.934-1.848-8.411-3.056-13.617-0.204-0.884-0.351-1.721-0.535-2.503-0.619-2.67-1.035-4.775-1.035-4.775C62.766 53.5 61.603 52 60.465 52h-0.452c-6.692 0-12.498 3.728-15.82 9.009-1.817 2.886-2.805 6.517-2.805 10.182l-0.118 6.534c0 0.182-0.005 0.275 0 1.275 0 0 0.009 0 0.013 0-0.005 0-0.013-0.125-0.013-0.04 0 2.945 2.387 5.04 5.331 5.04h44.18C93.727 84 94 82.012 94 79.067c0-0.085 0-0.285 0-0.285V71.19z" fill="#8dbdff" data-fill-palette-color="accent"></path></g></g><path fill-rule="evenodd" clip-rule="evenodd" d="M46.425 27.758v7.599H5.931v-7.599c0-1.86 1.502-3.362 3.362-3.362h2.6v2.04c0 1.232 1.009 2.241 2.242 2.241h0.84c1.233 0 2.241-1.009 2.241-2.241v-2.04h17.933v2.04c0 1.232 1.009 2.241 2.242 2.241h0.84c1.233 0 2.242-1.009 2.242-2.241v-2.04h2.589C44.923 24.396 46.425 25.897 46.425 27.758z" fill="#8dbdff" data-fill-palette-color="accent"></path><g fill="#8dbdff" data-fill-palette-color="accent"><g fill="#8dbdff" data-fill-palette-color="accent"><path fill-rule="evenodd" clip-rule="evenodd" d="M16.091 26.436c0 0.619-0.502 1.12-1.121 1.12h-0.84c-0.62 0-1.121-0.501-1.121-1.12v-6.585c0-0.619 0.501-1.121 1.121-1.121h0.84c0.618 0 1.121 0.501 1.121 1.121V26.436z" fill="#8dbdff" data-fill-palette-color="accent"></path></g><g fill="#8dbdff" data-fill-palette-color="accent"><path fill-rule="evenodd" clip-rule="evenodd" d="M39.347 26.436c0 0.619-0.503 1.12-1.121 1.12h-0.84c-0.62 0-1.121-0.501-1.121-1.12v-6.585c0-0.619 0.501-1.121 1.121-1.121h0.84c0.618 0 1.121 0.501 1.121 1.121V26.436z" fill="#8dbdff" data-fill-palette-color="accent"></path></g></g><path fill-rule="evenodd" clip-rule="evenodd" d="M5.941 36.873v28.098c0 0.616 0.504 1.121 1.12 1.121h33.31c0.257-1.098 0.605-2.163 1.042-3.184h-4.819v-5.85h5.851v3.755c0.101-0.213 0.224-0.426 0.358-0.627 1.031-1.648 2.264-3.117 3.631-4.36V36.873H5.941zM15.77 62.908h-5.85v-5.85h5.85V62.908zM15.77 54.256h-5.85v-5.851h5.85V54.256zM15.77 45.604h-5.85v-5.85h5.85V45.604zM24.657 62.908h-5.839v-5.85h5.839V62.908zM24.657 54.256h-5.839v-5.851h5.839V54.256zM33.557 45.604h-5.851v-5.85h5.851V45.604zM42.444 54.256h-5.851v-5.851h5.851V54.256zM42.444 45.604h-5.851v-5.85h5.851V45.604z" fill="#8dbdff" data-fill-palette-color="accent"></path></svg></g></svg></g></svg></g></svg></g><defs></defs></svg><rect width="395.52" height="114.69719956681104" fill="none" stroke="none" visibility="hidden"></rect></g></svg></g></svg>